<svg width="133" height="32" viewBox="0 0 133 32" fill="none" xmlns="http://www.w3.org/2000/svg">
<path d="M25.228 13.9847V12.3023H12.8959V15.9124H21.1408C20.765 17.6181 19.8841 18.985 18.4982 20.0131C17.1358 21.0179 15.3623 21.5203 13.1778 21.5203C10.4529 21.5203 8.2449 20.6907 6.55365 19.0317C4.88586 17.3727 4.05197 15.2815 4.05197 12.7579C4.05197 10.2344 4.88586 8.13141 6.55365 6.4491C8.22141 4.76672 10.3472 3.92554 12.9311 3.92554C14.5284 3.92554 15.973 4.28772 17.265 5.01202C18.5569 5.71301 19.5317 6.64771 20.1895 7.81598L23.6777 5.81818C22.6206 4.04236 21.1408 2.62872 19.2381 1.57721C17.3354 0.525757 15.2331 0 12.9311 0C9.26672 0 6.18954 1.2384 3.69965 3.71521C1.23322 6.1687 0 9.1712 0 12.7229C0 16.2979 1.23322 19.3121 3.69965 21.7656C6.18954 24.2191 9.33719 25.4458 13.1425 25.4458C16.7365 25.4458 19.6492 24.3826 21.8807 22.2563C24.1122 20.1066 25.228 17.3494 25.228 13.9847Z" fill="#191919"/>
<path fill-rule="evenodd" clip-rule="evenodd" d="M31.5044 20.9244C30.4944 20.2001 29.8484 19.1719 29.5665 17.8401H43.5899C43.6839 17.1859 43.7309 16.6601 43.7309 16.2629C43.7309 13.6926 42.897 11.5079 41.2292 9.70868C39.5849 7.90948 37.4708 7.00989 34.887 7.00989C32.1621 7.00989 29.9306 7.89777 28.1924 9.67358C26.4541 11.4261 25.585 13.6108 25.585 16.2278C25.585 18.8915 26.4659 21.0997 28.2276 22.8521C29.9893 24.5812 32.3031 25.4458 35.1688 25.4458C38.5749 25.4458 41.147 24.1723 42.8852 21.6254L39.7493 19.8029C38.7393 21.2515 37.2242 21.9759 35.2041 21.9759C33.7477 21.9759 32.5145 21.6254 31.5044 20.9244ZM39.8903 14.7557H29.5313C29.7897 13.4239 30.3887 12.3724 31.3283 11.6013C32.2679 10.8303 33.4424 10.4447 34.8517 10.4447C36.0967 10.4447 37.1772 10.8069 38.0933 11.5312C39.0329 12.2556 39.6319 13.3304 39.8903 14.7557Z" fill="#191919"/>
<path d="M54.2451 11.1106H49.876V19.5225C49.876 20.2468 50.0404 20.7725 50.3693 21.0997C50.6982 21.4034 51.1797 21.5787 51.8139 21.6254C52.4716 21.6488 53.282 21.6371 54.2451 21.5903V24.9902C51.3324 25.3406 49.2418 25.0953 47.9733 24.2541C46.7049 23.3896 46.0706 21.8123 46.0706 19.5225V11.1106H42.8291V7.46552H46.0706V3.68018L49.876 2.55859V7.46552H54.2451V11.1106Z" fill="#191919"/>
<path d="M57.8063 23.8335C59.474 24.9084 61.4941 25.4458 63.8666 25.4458C66.474 25.4458 68.5763 24.8032 70.1736 23.5181C71.7944 22.2096 72.6048 20.4454 72.6048 18.2256C72.6048 17.4312 72.5109 16.7185 72.3229 16.0876C72.135 15.4567 71.8062 14.8959 71.3364 14.4053C70.89 13.9146 70.4673 13.5057 70.0679 13.1785C69.6686 12.8514 69.0696 12.5243 68.2709 12.1971C67.4958 11.8701 66.8851 11.6364 66.4388 11.4962C66.0159 11.3326 65.3347 11.0989 64.3951 10.7952C62.516 10.211 61.2123 9.66193 60.4841 9.14789C59.7794 8.61041 59.4271 7.88611 59.4271 6.97479C59.4271 6.04016 59.7794 5.30414 60.4841 4.76672C61.1888 4.20593 62.1284 3.92554 63.3029 3.92554C65.7223 3.92554 67.4488 5.07043 68.4824 7.36035L71.9001 5.39758C71.1015 3.71521 69.9622 2.39502 68.4824 1.43701C67.0025 0.479004 65.276 0 63.3029 0C61.1183 0 59.2509 0.642578 57.7006 1.92773C56.1502 3.18951 55.3751 4.90692 55.3751 7.07996C55.3751 8.17816 55.5747 9.13617 55.9741 9.95398C56.3734 10.7718 56.9724 11.4611 57.771 12.0219C58.5932 12.5593 59.3683 12.9799 60.0965 13.2837C60.8247 13.5875 61.776 13.9146 62.9505 14.2651C65.0411 14.8959 66.4975 15.4801 67.3196 16.0175C68.1418 16.5316 68.5528 17.291 68.5528 18.2957C68.5528 19.2537 68.1653 20.0365 67.3901 20.644C66.6384 21.2282 65.4992 21.5203 63.9723 21.5203C60.8717 21.5203 58.8281 20.1417 57.8415 17.3845L54.3533 19.4173C55.011 21.2866 56.162 22.7587 57.8063 23.8335Z" fill="#191919"/>
<path fill-rule="evenodd" clip-rule="evenodd" d="M83.7409 7.00989C86.1603 7.00989 88.2274 7.90948 89.9422 9.70868C91.6569 11.4845 92.5143 13.6575 92.5143 16.2278C92.5143 18.8215 91.6569 21.0062 89.9422 22.782C88.2274 24.5579 86.1603 25.4458 83.7409 25.4458C81.063 25.4458 79.0077 24.4644 77.5748 22.5016V32H73.7695V7.46552H77.5748V9.98907C79.0077 8.00293 81.063 7.00989 83.7409 7.00989ZM79.1604 20.2585C80.2174 21.31 81.5446 21.8357 83.1419 21.8357C84.7392 21.8357 86.0664 21.31 87.1234 20.2585C88.1805 19.1837 88.709 17.8401 88.709 16.2278C88.709 14.6155 88.1805 13.2837 87.1234 12.2322C86.0664 11.1573 84.7392 10.6199 83.1419 10.6199C81.5446 10.6199 80.2174 11.1573 79.1604 12.2322C78.1033 13.2837 77.5748 14.6155 77.5748 16.2278C77.5748 17.8401 78.1033 19.1837 79.1604 20.2585Z" fill="#191919"/>
<path fill-rule="evenodd" clip-rule="evenodd" d="M95.5756 22.782C97.3843 24.5579 99.5806 25.4458 102.164 25.4458C104.772 25.4458 106.968 24.5579 108.753 22.782C110.562 21.0062 111.466 18.8215 111.466 16.2278C111.466 13.6342 110.562 11.4495 108.753 9.67358C106.968 7.89777 104.772 7.00989 102.164 7.00989C99.5806 7.00989 97.3843 7.89777 95.5756 9.67358C93.7669 11.4495 92.8625 13.6342 92.8625 16.2278C92.8625 18.8215 93.7669 21.0062 95.5756 22.782ZM102.164 21.7656C100.614 21.7656 99.3105 21.2399 98.2534 20.1884C97.1964 19.1369 96.6678 17.8167 96.6678 16.2278C96.6678 14.6389 97.1964 13.3187 98.2534 12.2673C99.3105 11.2158 100.614 10.6901 102.164 10.6901C103.715 10.6901 105.018 11.2158 106.076 12.2673C107.133 13.3187 107.661 14.6389 107.661 16.2278C107.661 17.8167 107.133 19.1369 106.076 20.1884C105.018 21.2399 103.715 21.7656 102.164 21.7656Z" fill="#191919"/>
<path d="M116.599 10.4097C117.562 8.23657 119 7.5 122.5 7.5L124.826 7.46552V3.68018L128.631 2.55859V7.46552H133V11.1106H128.631V19.5225C128.631 20.2468 128.795 20.7725 129.124 21.0997C129.453 21.4034 129.935 21.5787 130.569 21.6254C131.227 21.6488 132.037 21.6371 133 21.5903V24.9902C130.087 25.3406 127.997 25.0953 126.728 24.2541C125.46 23.3896 124.826 21.8123 124.826 19.5225V11.1106H121.889C120.583 11.1866 119.122 11.6384 118.219 12.3023C117.139 13.0734 116.599 14.3585 116.599 16.1577V24.9902H112.793V7.46552H116.599V10.4097Z" fill="#191919"/>
</svg>
